# xmcd CD database file
#
# Track frame offsets:
#	187
#	20872
#	38972
#	62140
#	77407
#	99177
#	117015
#	132620
#	160602
#	181000
#	197850
#	212050
#	231517
#	250900
#
# Disc length: 3526 seconds
#
# Revision: 0
# Processed by: cddbd v1.4PL0 Copyright (c) Steve Scherf et al.
# Submitted via: CDex 1.50Beta7
#
DISCID=bc0dc40e
DTITLE=Eddie Condon - The Town Hall Concerts, Vol. 8 (Part 2)
DYEAR=1944
DGENRE=Jazz
TTITLE0=Walkin' the Dog 
TTITLE1=I Ain't Got Nobody 
TTITLE2=Strut, Miss Lizzie 
TTITLE3=I Know That You Know 
TTITLE4=Sweet Georgia Brown 
TTITLE5=When Your Lover Has Gone 
TTITLE6=Impromptu Ensemble 
TTITLE7=Sunday
TTITLE8=How Come You Do Me Like You Do? 
TTITLE9=Every Night 
TTITLE10=Keep Smiling at Trouble 
TTITLE11=That's A-Plenty 
TTITLE12=Sugar
TTITLE13=Imromptu Ensemble 
EXTD=YEAR: 1944
EXTT0=
EXTT1=
EXTT2=
EXTT3=
EXTT4=
EXTT5=
EXTT6=
EXTT7=
EXTT8=
EXTT9=
EXTT10=
EXTT11=
EXTT12=
EXTT13=
PLAYORDER=
